<?xml version="1.0" standalone="no"?>
<!DOCTYPE svg PUBLIC "-//W3C//DTD SVG 20010904//EN"
 "http://www.w3.org/TR/2001/REC-SVG-20010904/DTD/svg10.dtd">
<svg version="1.0" xmlns="http://www.w3.org/2000/svg"
 width="512.000000pt" height="512.000000pt" viewBox="0 0 512.000000 512.000000"
 preserveAspectRatio="xMidYMid meet">

<g transform="translate(0.000000,512.000000) scale(0.100000,-0.100000)"
fill="#000000" stroke="none">
<path d="M2155 5100 c-276 -50 -525 -153 -745 -308 -123 -86 -345 -308 -432
-432 -231 -327 -354 -746 -335 -1140 25 -502 251 -1106 663 -1766 229 -368
419 -617 798 -1047 70 -81 175 -204 233 -274 57 -71 111 -128 119 -128 8 0 73
68 145 150 72 83 205 229 296 326 347 374 616 732 837 1118 647 1125 707 2071
180 2788 -264 358 -660 611 -1104 704 -154 32 -498 37 -655 9z"/>
</g>
</svg>
